<svg width="18" height="23" viewBox="0 0 18 23" fill="none" xmlns="http://www.w3.org/2000/svg">
<mask id="path-1-inside-1" fill="white">
<path fill-rule="evenodd" clip-rule="evenodd" d="M2 7C2 3.134 5.13401 0 9 0C12.866 0 16 3.13401 16 7V16.1H18V18.4H0V16.1H2V7ZM7 20.7V23H11V20.7H7Z"/>
</mask>
<path d="M16 16.1H14V18.1H16V16.1ZM18 16.1H20V14.1H18V16.1ZM18 18.4V20.4H20V18.4H18ZM0 18.4H-2V20.4H0V18.4ZM0 16.1V14.1H-2V16.1H0ZM2 16.1V18.1H4V16.1H2ZM7 23H5V25H7V23ZM7 20.7V18.7H5V20.7H7ZM11 23V25H13V23H11ZM11 20.7H13V18.7H11V20.7ZM9 -2C4.02944 -2 0 2.02943 0 7H4C4 4.23857 6.23858 2 9 2V-2ZM18 7C18 2.02944 13.9706 -2 9 -2V2C11.7614 2 14 4.23858 14 7H18ZM18 16.1V7H14V16.1H18ZM18 14.1H16V18.1H18V14.1ZM20 18.4V16.1H16V18.4H20ZM0 20.4H18V16.4H0V20.4ZM-2 16.1V18.4H2V16.1H-2ZM2 14.1H0V18.1H2V14.1ZM0 7V16.1H4V7H0ZM9 23V20.7H5V23H9ZM11 21H7V25H11V21ZM9 20.7V23H13V20.7H9ZM7 22.7H11V18.7H7V22.7Z" fill="#B4BEF0" mask="url(#path-1-inside-1)"/>
</svg>
